<svg width="100" height="100" viewBox="0 0 100 100" fill="none" xmlns="http://www.w3.org/2000/svg">
<g clip-path="url(#clip0_606_100)">
<path d="M0 94.6981V36.8578H12.9256V44.0568C14.0883 41.8057 15.6996 40.0085 17.7596 38.6653C20.9122 36.6097 24.6252 35.5819 28.8988 35.5819C33.5926 35.5819 37.726 36.8223 41.299 39.3032C43.5445 40.8624 45.292 42.1036 46.5414 43.8136C48.0723 41.8446 49.9679 40.5541 52.2279 39.0906C55.7308 36.7514 59.7591 35.5819 64.3129 35.5819C66.9591 35.5819 69.4122 35.9727 71.6722 36.7543L71.6723 33.698H61.3512V20.2513H62.4491C65.3771 20.2513 67.6463 19.4468 69.2567 17.8378C70.8671 16.2287 71.6723 13.8918 71.6723 10.827V6H86.0559V20.2513H99.7808V33.698H86.0559L86.0555 57.4385L86.0555 58.3103V60.8515V71.6997C86.0555 73.7685 86.3849 75.5307 87.0437 76.9865C87.7757 78.4423 88.8737 79.5533 90.3377 80.3195C91.8749 81.0857 93.8147 81.4688 96.1571 81.4688H98H100V94.6857L96.4628 94.6857L92.8631 94.6857C86.1287 94.6857 80.895 92.7702 77.1618 88.9392C73.5018 85.0316 71.6718 79.5533 71.6718 72.5042V60.8515C71.6718 58.2997 71.2135 56.0315 70.3028 54.1886C69.392 52.3456 68.131 50.928 66.5197 49.9356C64.9084 48.8724 62.9468 48.3407 60.6349 48.3407C58.4631 48.3407 56.5365 48.8724 54.8551 49.9356C53.1737 50.928 51.8777 52.3456 50.9669 54.1886C50.0562 56.0315 49.6008 58.2289 49.6008 60.7807V94.6981H35.8345V60.7807C35.8345 58.2289 35.3791 56.0315 34.4683 54.1886C33.5576 52.3456 32.2615 50.928 30.5801 49.9356C28.9688 48.8724 27.0422 48.3407 24.8004 48.3407C22.6286 48.3407 20.702 48.8724 19.0206 49.9356C17.3393 50.928 16.0432 52.3456 15.1324 54.1886C14.2217 56.0315 13.7663 58.2289 13.7663 60.7807V94.6981H0Z" fill="white"/>
</g>
<defs>
<clipPath id="clip0_606_100">
<rect width="100" height="100" fill="white"/>
</clipPath>
</defs>
</svg>
